<svg xmlns="http://www.w3.org/2000/svg" viewBox="0 0 1024 1024" width="1024" height="1024">
  <defs>
    <linearGradient id="bodyGrad" x1="0" y1="0" x2="0" y2="1">
      <stop offset="0%" stop-color="#9A6B47"/><stop offset="100%" stop-color="#6E472F"/>
    </linearGradient>
    <linearGradient id="darkGrad" x1="0" y1="0" x2="0" y2="1">
      <stop offset="0%" stop-color="#513523"/><stop offset="100%" stop-color="#2F1F17"/>
    </linearGradient>
    <filter id="shadow" x="-30%" y="-30%" width="160%" height="160%">
      <feDropShadow dx="0" dy="20" stdDeviation="18" flood-color="#000000" flood-opacity="0.22"/>
    </filter>
  </defs>
  <rect width="1024" height="1024" rx="80" fill="#F7F0E8"/>
  <ellipse cx="512" cy="875" rx="280" ry="58" fill="#3B2A20" opacity="0.12"/>

  <rect x="497" y="113" width="30" height="168" rx="15" fill="#4D3324"/><path d="M525 126 C600 96, 660 120, 709 153 C649 180, 601 194, 525 177 Z" fill="#7A4E2F"/>

  <g filter="url(#shadow)">
    <rect x="280" y="300" width="464" height="430" rx="72" fill="url(#bodyGrad)"/>
    <rect x="260" y="255" width="110" height="120" rx="26" fill="#9A6B47"/>
    <rect x="392" y="235" width="110" height="140" rx="26" fill="#A6754F"/>
    <rect x="522" y="235" width="110" height="140" rx="26" fill="#A6754F"/>
    <rect x="654" y="255" width="110" height="120" rx="26" fill="#9A6B47"/>
    <rect x="335" y="285" width="354" height="95" rx="28" fill="#A6754F"/>
    <g fill="none" stroke="#5E3E2A" stroke-width="10" opacity="0.38">
      <path d="M300 430 H724"/><path d="M300 540 H724"/><path d="M300 650 H724"/>
      <path d="M385 380 V430"/><path d="M515 380 V430"/><path d="M645 380 V430"/>
      <path d="M350 430 V540"/><path d="M485 430 V540"/><path d="M620 430 V540"/>
      <path d="M410 540 V650"/><path d="M550 540 V650"/><path d="M680 540 V650"/>
    </g>

    <ellipse cx="431" cy="470" rx="34" ry="46" fill="#201712"/>
    <ellipse cx="593" cy="470" rx="34" ry="46" fill="#201712"/>
    <ellipse cx="442" cy="454" rx="10" ry="14" fill="#FFFFFF" opacity="0.9"/>
    <ellipse cx="604" cy="454" rx="10" ry="14" fill="#FFFFFF" opacity="0.9"/>

    <path d="M462 548 Q512 578 566 534" fill="none" stroke="#201712" stroke-width="18" stroke-linecap="round"/>
    <path d="M430 730 V630 Q430 565 512 565 Q594 565 594 630 V730 Z" fill="url(#darkGrad)"/>
    <path d="M512 578 V730" stroke="#8F6245" stroke-width="12" opacity="0.55"/>
    <circle cx="552" cy="655" r="12" fill="#C69257"/>

    <path d="M288 470 C220 500, 215 610, 285 650" fill="none" stroke="#7A5136" stroke-width="62" stroke-linecap="round"/>
    <path d="M736 470 C804 500, 809 610, 739 650" fill="none" stroke="#7A5136" stroke-width="62" stroke-linecap="round"/>

    <circle cx="272" cy="655" r="48" fill="#7A5136"/>
    <circle cx="752" cy="655" r="48" fill="#7A5136"/>
    <rect x="350" y="700" width="122" height="160" rx="52" fill="#6F4932"/>
    <rect x="552" y="700" width="122" height="160" rx="52" fill="#6F4932"/>
    <ellipse cx="410" cy="858" rx="82" ry="48" fill="#5B3B29"/>
    <ellipse cx="614" cy="858" rx="82" ry="48" fill="#5B3B29"/>
  </g>
  <path d="M329 358 C380 318, 436 310, 500 309" fill="none" stroke="#C89A74" stroke-width="18" stroke-linecap="round" opacity="0.34"/>


  <g>
    <rect x="378" y="432" width="126" height="82" rx="26" fill="#14141C"/>
    <rect x="520" y="432" width="126" height="82" rx="26" fill="#14141C"/>
    <path d="M504 462 H520" stroke="#14141C" stroke-width="16"/>
    <path d="M378 462 H330" stroke="#14141C" stroke-width="14" stroke-linecap="round"/>
    <path d="M646 462 H694" stroke="#14141C" stroke-width="14" stroke-linecap="round"/>
    <path d="M396 452 L436 452" stroke="#FFFFFF" stroke-width="12" stroke-linecap="round" opacity="0.45"/>
  </g>
</svg>
