<svg xmlns="http://www.w3.org/2000/svg" viewBox="0 0 1600 900">
  <title>Quibly room cover — focused castle</title>
  <defs>
    <linearGradient id="bg" x1="0" y1="1" x2="1" y2="0"><stop stop-color="#0A0A0C"/><stop offset="1" stop-color="#22222B"/></linearGradient>
    <radialGradient id="glow" cx="32%" cy="48%" r="54%"><stop stop-color="#C8FF4D" stop-opacity=".13"/><stop offset="1" stop-color="#C8FF4D" stop-opacity="0"/></radialGradient>
  </defs>
  <rect width="1600" height="900" fill="url(#bg)"/><rect width="1600" height="900" fill="url(#glow)"/>
  <!-- Clock motif derived from castelo-focused-night.svg. -->
  <g transform="translate(245 215)" fill="none" stroke="#F5F5F7" stroke-linecap="round" opacity=".3">
    <circle cx="230" cy="230" r="205" stroke-width="28"/><path d="M230 105v142l105 70" stroke-width="34"/>
  </g>
  <g transform="translate(575 50) scale(.78)" fill="#C8FF4D" opacity=".9">
    <path fill-rule="evenodd" d="M224 790V334h52v-78h54v48h60v-48h54v78h44V218h48v116h46v-78h54v48h60v-48h54v78h50v456H224ZM452 790V672c0-44 27-76 60-76s60 32 60 76v118H452Z"/><path d="M500 116h24v146h-24zM524 126c74-28 140-10 206 36-68 43-132 55-206 25v-61Z"/>
  </g>
</svg>
