<svg xmlns="http://www.w3.org/2000/svg" viewBox="0 0 1600 900">
  <title>Quibly room cover — thinking castle</title>
  <defs>
    <linearGradient id="bg" x1=".2" y1="0" x2=".8" y2="1"><stop stop-color="#1C1C23"/><stop offset=".55" stop-color="#0A0A0C"/><stop offset="1" stop-color="#131318"/></linearGradient>
    <radialGradient id="glow" cx="50%" cy="70%" r="58%"><stop stop-color="#C8FF4D" stop-opacity=".14"/><stop offset="1" stop-color="#C8FF4D" stop-opacity="0"/></radialGradient>
  </defs>
  <rect width="1600" height="900" fill="url(#bg)"/><rect width="1600" height="900" fill="url(#glow)"/>
  <g transform="translate(405 50) scale(.78)" fill="#C8FF4D" opacity=".88">
    <path fill-rule="evenodd" d="M224 790V334h52v-78h54v48h60v-48h54v78h44V218h48v116h46v-78h54v48h60v-48h54v78h50v456H224ZM452 790V672c0-44 27-76 60-76s60 32 60 76v118H452Z"/><path d="M500 116h24v146h-24zM524 126c74-28 140-10 206 36-68 43-132 55-206 25v-61Z"/>
  </g>
  <!-- Thought bubbles derived from castelo-thinking-night.svg. -->
  <g fill="#F5F5F7" opacity=".42"><circle cx="1110" cy="610" r="28"/><circle cx="1190" cy="530" r="46"/><circle cx="1310" cy="410" r="72"/></g>
</svg>
